<svg xmlns="http://www.w3.org/2000/svg" viewBox="0 0 92.99 92.99"><defs><style>.cls-1{fill-rule:evenodd;}</style></defs><g id="Layer_2" data-name="Layer 2"><g id="Maquette_Design" data-name="Maquette Design"><g id="Accueil"><path id="logo_discord" class="cls-1" d="M46.49,0A46.5,46.5,0,1,0,93,46.49,46.49,46.49,0,0,0,46.49,0ZM59.08,71.09l-1.44-5,3.47,3.23,3.28,3,5.84,5.15V28.83a5.57,5.57,0,0,0-5.56-5.58H28.32a5.57,5.57,0,0,0-5.56,5.58V65.5a5.58,5.58,0,0,0,5.56,5.59ZM54.2,58.67l-1.79-2.2a8.56,8.56,0,0,0,4.91-3.23,15.18,15.18,0,0,1-3.12,1.6A18,18,0,0,1,50.26,56a18.93,18.93,0,0,1-7,0,23.17,23.17,0,0,1-4-1.16,17.3,17.3,0,0,1-2-.93l-.11-.06h0L37,53.76l-.11-.08-.76-.46a8.42,8.42,0,0,0,4.75,3.2l-1.82,2.25c-6-.19-8.27-4.12-8.27-4.12a36.38,36.38,0,0,1,3.9-15.82,13.36,13.36,0,0,1,7.62-2.84l.28.32a18.3,18.3,0,0,0-7.14,3.55l1.6-.78a20.24,20.24,0,0,1,6.16-1.71l.46-.06a23.19,23.19,0,0,1,5.48-.05,22.2,22.2,0,0,1,8.16,2.6,18.05,18.05,0,0,0-6.75-3.44l.38-.43a13.34,13.34,0,0,1,7.62,2.84A36.31,36.31,0,0,1,62.5,54.55S60.28,58.33,54.2,58.67ZM51.48,46a3,3,0,1,0,2.77,3A2.89,2.89,0,0,0,51.48,46Zm-9.89,0a3,3,0,1,0,2.76,3A2.89,2.89,0,0,0,41.59,46Z"/></g></g></g></svg>