<svg xmlns="http://www.w3.org/2000/svg" viewBox="0 0 92.99 94.02"><g id="Layer_2" data-name="Layer 2"><g id="Maquette_Design" data-name="Maquette Design"><g id="Accueil"><path d="M67.46,30.5a8.83,8.83,0,0,0-5.08-5.08,14.5,14.5,0,0,0-5-.92c-2.81-.13-3.66-.16-10.83-.16s-8,0-10.83.16a14.61,14.61,0,0,0-5,.92,8.25,8.25,0,0,0-3.07,2,8.1,8.1,0,0,0-2,3.08,15,15,0,0,0-.92,5c-.12,2.81-.16,3.67-.16,10.83s0,8,.16,10.83a15.14,15.14,0,0,0,.92,5,8.83,8.83,0,0,0,5.08,5.08,15.07,15.07,0,0,0,5,.92c2.82.12,3.68.16,10.83.16s8,0,10.83-.16a15.07,15.07,0,0,0,5-.92,8.89,8.89,0,0,0,5.09-5.09,14.56,14.56,0,0,0,.92-5c.13-2.83.16-3.67.16-10.82s0-8-.16-10.83A14.56,14.56,0,0,0,67.46,30.5ZM46.55,60.06A13.78,13.78,0,1,1,60.33,46.29,13.78,13.78,0,0,1,46.55,60.06ZM60.87,35.18A3.22,3.22,0,1,1,64.09,32,3.21,3.21,0,0,1,60.87,35.18Z"/><circle cx="46.55" cy="46.29" r="8.94"/><path d="M46.49,0C20.82,0,0,21.05,0,47S20.82,94,46.49,94,93,73,93,47,72.17,0,46.49,0Zm26.7,57.34a19.54,19.54,0,0,1-1.25,6.51,13.7,13.7,0,0,1-7.84,7.84,19.74,19.74,0,0,1-6.51,1.25c-2.86.12-3.77.15-11.05.15s-8.19,0-11-.15A19.79,19.79,0,0,1,29,71.69a13.75,13.75,0,0,1-7.84-7.84,19.74,19.74,0,0,1-1.25-6.51c-.12-2.86-.16-3.77-.16-11.05s0-8.19.17-11.06a19.79,19.79,0,0,1,1.25-6.51A13.32,13.32,0,0,1,24.24,24,13.09,13.09,0,0,1,29,20.87a19.51,19.51,0,0,1,6.51-1.24c2.86-.13,3.77-.16,11-.16s8.19,0,11.06.17a19.56,19.56,0,0,1,6.51,1.24A13.79,13.79,0,0,1,72,28.73a19.51,19.51,0,0,1,1.24,6.51c.13,2.86.14,3.77.14,11S73.32,54.48,73.19,57.34Z"/></g></g></g></svg>