<svg xmlns="http://www.w3.org/2000/svg" viewBox="0 0 910.05 564.03"><defs><style>.cls-1,.cls-2{fill:#1a1a1a;}.cls-1{fill-rule:evenodd;}.cls-3{fill:#333;}.cls-3,.cls-4{stroke:#47b2ac;stroke-miterlimit:10;stroke-width:2px;}.cls-4{fill:none;}</style></defs><g id="Layer_2" data-name="Layer 2"><g id="Maquette_Cellulaire" data-name="Maquette Cellulaire"><g id="évènement"><path class="cls-1" d="M285.18,412.56s53.12-81.22,65.28-183.78-8.24-185.69-8.24-185.69H492.41s-55,117.91-60.2,187,20.91,145.12,20.91,145.12,83.31,6.45,138.79,22.18C652.34,414.49,680,437.28,680,437.28s80.23,6.19,136.89,27.88c58.34,22.34,93.16,60.21,93.16,60.21a85.46,85.46,0,0,1-20.92,23.45c-12.77,9.5-31,15.21-31,15.21L15.21,560.22S7.12,554.56,3.8,546.91A52.71,52.71,0,0,1,0,531.07c63-80.54,207.87-84.92,207.87-84.92S221.24,423.53,285.18,412.56Z"/><rect class="cls-2" x="376.47" y="30.42" width="36.76" height="12.67"/><rect class="cls-2" x="422.73" y="32.95" width="13.31" height="10.14"/><rect class="cls-2" x="395.48" width="2.53" height="30.42"/><line class="cls-3" x1="395.94" y1="113.19" x2="324.93" y2="424.17"/><line class="cls-4" x1="402.23" y1="114.99" x2="411.67" y2="404.85"/><line class="cls-4" x1="407.62" y1="113.64" x2="487.61" y2="436.3"/><line class="cls-4" x1="393.69" y1="112.74" x2="253.93" y2="437.2"/><line class="cls-4" x1="409.87" y1="111.39" x2="582.44" y2="424.17"/></g></g></g></svg>