<svg xmlns="http://www.w3.org/2000/svg" viewBox="0 0 1998.38 1344.9"><defs><style>.cls-1{fill:#1a1a1a;}</style></defs><g id="Layer_2" data-name="Layer 2"><g id="maquette"><g id="titre"><path class="cls-1" d="M277.72,761.46a7.58,7.58,0,0,0,3-.43l.14,0-.32,8.8-26.25.08-.14-46.86c.63,0,1.33.08,2.1.1l2.46.06c1.63,0,3.41.06,5.32.06q8,0,15.88-.33a69.83,69.83,0,0,0-.36,8.24,3.58,3.58,0,0,0,.07.84l-.07.1a20.31,20.31,0,0,0-5.19-.51l-11,0,0,8.94,8.3,0a26.4,26.4,0,0,0,4.63-.23l.13,8.66a43.19,43.19,0,0,0-4.34-.16l-8.7,0,0,12.62Z"/><path class="cls-1" d="M290.57,769.83a14,14,0,0,0,.2-2.59l-.12-44,7,0,18.66,29.17-.08-26.84a4.91,4.91,0,0,0-.36-2.38l9.46,0a26.33,26.33,0,0,0-.17,3.08l.13,43.53-7.29,0-18.37-28,.08,28.08Z"/><path class="cls-1" d="M386.7,770a132.88,132.88,0,0,0-13.45-.4l-5.81,0-.28-97c3.1.18,6.51.27,10.25.26a37.21,37.21,0,0,0,7.92-.6l24.55,41.44,23.36-41.58a43.64,43.64,0,0,0,8.88.55q6.54,0,11.19-.32l.28,97-5.81,0a132,132,0,0,0-13.45.47l-.19-65.14-23.65,42.6-24-39Z"/><path class="cls-1" d="M533.8,672.06c3,.24,5.5.35,7.49.35l6,0a38.24,38.24,0,0,0,6.4-.6l.17,60.13q.06,17.88-10.75,28.75Q532.93,770.95,517.43,771q-16.93,0-27.43-8.72-11.75-9.84-11.79-28.46L478,672.22c4,.24,7.82.35,11.38.34a54.54,54.54,0,0,0,8.83-.61l.18,62.74q0,9.16,5.65,14.24a19,19,0,0,0,13.1,4.61q11.63,0,15.45-12A35.15,35.15,0,0,0,534,731Z"/><path class="cls-1" d="M592.61,769q-10.7,0-14.18.47l-.28-97.57a36.84,36.84,0,0,0,7.23.42q5.49,0,12.76-.33l.23,79.54,15.06,0a100.49,100.49,0,0,0,10.46-.47q-.45,17-.46,17.67v.73q-7.14-.5-23.92-.44Z"/><path class="cls-1" d="M675.49,769.15q-3.48-.42-18-.38h-2.33L655,688.36l-14.4,0c-4.26,0-6.79.24-7.56.68a16.34,16.34,0,0,0-1.82,1.17l-.21-.07-.06-18.62.22-.22q2.4.79,12.94.77l45.59-.13c4.27,0,6.79-.24,7.56-.68a15.2,15.2,0,0,0,1.81-1.17l.22.07.06,18.62-.22.21q-2.4-.78-13-.76l-10.9,0Z"/><path class="cls-1" d="M717.16,671.6q7.27.27,8.8.27l5.24,0a26.32,26.32,0,0,0,6.18-.59l.2,97.28-20.13.05Z"/><path class="cls-1" d="M784.55,768.84a130,130,0,0,0-13.45-.4l-5.81,0-.28-97c3.1.18,6.51.27,10.25.26a36.38,36.38,0,0,0,7.92-.61l24.55,41.45L831.09,671a43.3,43.3,0,0,0,8.87.56q6.56,0,11.2-.32l.28,97h-5.82a131,131,0,0,0-13.44.48L832,703.55l-23.66,42.61-24-39Z"/><path class="cls-1" d="M925.41,750.54c3,0,5.08-.3,6.25-.89l.29.07L931.27,768l-54.45.15-.28-97.21c1.31.1,2.76.17,4.36.21l5.09.13c3.39.09,7.08.13,11,.11q16.65,0,32.93-.67a142.67,142.67,0,0,0-.74,17.09,7,7,0,0,0,.15,1.74l-.15.22a41,41,0,0,0-10.76-1.06l-22.91.07.06,18.54,17.23,0c5.33,0,8.53-.17,9.6-.47l.26,18a88.92,88.92,0,0,0-9-.34l-18,.05.07,26.18Zm-28-112.47q10.9,0,23.26-1.3l-.07.51-19,23.54-16.43,0Z"/><path class="cls-1" d="M975,769.67a124.28,124.28,0,0,1-22.19-1.83l-.28-97.28a189.54,189.54,0,0,1,22.28-1.23,72.15,72.15,0,0,1,23,3.39,46.87,46.87,0,0,1,17.22,9.8q14,12.76,14.07,35.8.08,25.81-15.45,39.24Q999.7,769.59,975,769.67Zm-3.33-17.73a52.07,52.07,0,0,0,9.46.84,31.9,31.9,0,0,0,10.17-1.88,24.65,24.65,0,0,0,9.43-5.81q8.56-8.31,8.51-24.16-.08-26-19.06-31.94a48.19,48.19,0,0,0-14.48-1.92h-2c-.73,0-1.48,0-2.26.08Z"/><path class="cls-1" d="M1052.56,670.63q7.28.27,8.8.27l5.23,0a25.61,25.61,0,0,0,6.18-.6l1.88,674.56-20.14.06Z"/><path class="cls-1" d="M1107.37,768.05q-6.25-.57-14.61-.54H1087l31.37-88.72c1.4-4,2.09-6.29,2.09-6.94a5.31,5.31,0,0,0-.08-1.21l.08-.14q4.72.21,10,.19,4.37,0,10.47-.18l.07.15a1.91,1.91,0,0,0-.14.8c0,.92.74,3.37,2.2,7.33l32.54,88.69c-1,0-2.11-.07-3.42-.07l-3.78-.13h-3.27l-11.27,0L1147,746.41l-32.87.1ZM1141.29,729l-11.08-33.78L1119.62,729Z"/><path class="cls-1" d="M25.68,934.19c-1.29-.16-4.62-.23-10-.21h-1.3L13.36,569.44l-8,0a12.9,12.9,0,0,0-4.2.37,9.06,9.06,0,0,0-1,.65l-.12,0,0-10.34L.12,560q1.34.43,7.19.42l25.33-.07c2.37,0,3.77-.13,4.2-.38a10.31,10.31,0,0,0,1-.64l.12,0,0,10.34-.12.12q-1.34-.45-7.2-.43l-6.05,0Z"/><path class="cls-1" d="M73.8,604.25a8.64,8.64,0,0,0,3.48-.5l.16,0-.38,10.14L46.81,614l-.16-54c.73.05,1.54.09,2.43.11l2.82.07q2.84.07,6.14.07,9.25,0,18.3-.38a80.22,80.22,0,0,0-.42,9.49,4.4,4.4,0,0,0,.09,1l-.08.12a22.69,22.69,0,0,0-6-.58l-12.73,0,0,10.3,9.58,0a31.91,31.91,0,0,0,5.33-.26l.15,10a49.5,49.5,0,0,0-5-.18l-10,0,0,14.54Z"/><path class="cls-1" d="M112.17,559.1a29,29,0,0,1,12.89,2.59l0,12.36-.08.08q-2.28-3.46-9.55-4.58a33.73,33.73,0,0,0-5.41-.35,17.71,17.71,0,0,0-6.42,1.25A13.29,13.29,0,0,0,98.48,574q-3.92,4.42-3.88,12.58,0,9.5,5,14.12,4.14,3.87,10.92,3.85,7.68,0,12.43-3.31a11.18,11.18,0,0,0,2.94-2.92l.12.08,0,11.31q-6.17,5.15-16.63,5.18-12.32,0-19.33-7.78-6.72-7.46-6.76-19.77,0-13,7.29-20.58T112.17,559.1Z"/><path class="cls-1" d="M147.15,614q-3.89-.22-9.21-.21h-1.3l-.15-53.92c1.67.13,2.85.19,3.55.19h1.66a35.12,35.12,0,0,0,5.29-.33l.06,21.52,19-.05L166,559.75c2.24.13,4.41.19,6.53.19a14.14,14.14,0,0,0,4-.34l.16,54.29a76.07,76.07,0,0,0-7.67-.22h-2.83l-.07-22.83-19,.06Z"/><path class="cls-1" d="M191.7,613.6a17.38,17.38,0,0,0,.23-3l-.15-50.73,8.08,0,21.51,33.62L219.66,2.78A5.62,5.62,0,0,0,219.24,0l10.91,0A29.9,29.9,0,0,0,230,3.56l1.77,609.93-8.41,0-21.17-32.29.09,32.35Z"/><path class="cls-1" d="M247.32,559.56c2.7.1,4.33.15,4.89.14h2.91a14.77,14.77,0,0,0,3.43-.34l.12,54-11.19,0Z"/><path class="cls-1" d="M304,613.52a35.71,35.71,0,0,1-7.83.79,25.76,25.76,0,0,1-9.4-1.91,26.39,26.39,0,0,1-8.64-5.43q-7.94-7.53-8-19.33a28.76,28.76,0,0,1,7.61-20.29q8.06-8.76,20.58-8.79,11.39,0,18.92,7.14,8,7.65,8,20.09a28.06,28.06,0,0,1-5.61,17.46,26.8,26.8,0,0,1-3.94,4.22,23.69,23.69,0,0,1,3.51,1.32,20.89,20.89,0,0,0,8.33,2.12h.81a4.64,4.64,0,0,0,2.78-.57l.17.12-3.05,7.72a2.18,2.18,0,0,1-2.14,1.75,12.53,12.53,0,0,1-4.69-1q-2.38-1-4.26-1.8c-1.26-.57-2.45-1.06-3.58-1.49s-2.21-.79-3.24-1.08A37.46,37.46,0,0,0,304,613.52Zm-23-26.35a18.32,18.32,0,0,0,1.33,7,17,17,0,0,0,3.63,5.55,16.73,16.73,0,0,0,12.38,4.93,15.17,15.17,0,0,0,11.58-4.84q4.62-4.95,4.6-13.06a19,19,0,0,0-4.4-12.79,15.66,15.66,0,0,0-12.53-5.46,15.25,15.25,0,0,0-12.27,5.61A19.8,19.8,0,0,0,281,587.17Z"/><path class="cls-1" d="M366.32,559.17c1.67.13,3.06.19,4.16.19h3.35a20.42,20.42,0,0,0,3.56-.33l.09,33.4q0,9.95-6,16a19.4,19.4,0,0,1-14.28,5.73q-9.42,0-15.24-4.84-6.53-5.47-6.55-15.82l-.1-34.21q3.35.19,6.32.18a30.19,30.19,0,0,0,4.91-.33l.1,34.86c0,3.39,1.05,6,3.13,7.9a10.52,10.52,0,0,0,7.28,2.57q6.46,0,8.58-6.65a19.29,19.29,0,0,0,.75-5.9Z"/><path class="cls-1" d="M418.11,603.25a8.59,8.59,0,0,0,3.47-.49l.16,0-.37,10.14-30.26.08L391,559c.73.05,1.53.09,2.42.11l2.83.08c1.88,0,3.93.07,6.14.06q9.25,0,18.3-.38a80.29,80.29,0,0,0-.42,9.5,4.6,4.6,0,0,0,.08,1l-.08.12a22.57,22.57,0,0,0-6-.59l-12.72,0,0,10.3,9.57,0a31.91,31.91,0,0,0,5.33-.26l.15,10a49.07,49.07,0,0,0-5-.19l-10,0,0,14.54Z"/><path class="cls-1" d="M473.07,613.8a69,69,0,0,1-12.32-1l-.16-54a105.89,105.89,0,0,1,12.38-.69,40,40,0,0,1,12.77,1.89,25.84,25.84,0,0,1,9.57,5.44q7.77,7.1,7.81,19.89,0,14.34-8.58,21.8Q486.81,613.76,473.07,613.8ZM471.23,604a30.05,30.05,0,0,0,5.25.47,17.85,17.85,0,0,0,5.65-1,13.55,13.55,0,0,0,5.24-3.23q4.75-4.62,4.73-13.42,0-14.46-10.59-17.74a26.86,26.86,0,0,0-8-1.07h-1.09c-.41,0-.83,0-1.26.05Z"/><path class="cls-1" d="M527.19,554.26c.3,2.83.46,5,.46,6.4s0,2.84-.13,4.18-.21,2.56-.37,3.64c-.4,2.32-.88,3.67-1.44,4q-2,1.31-9.49,2.86l-.24-.24q1.44-2.71,1.42-12.08,0-4.12-.26-7.15Z"/><path class="cls-1" d="M547.29,535.34q5.79.21,7,.21h4.17a21.3,21.3,0,0,0,4.92-.48l.17,77.46-16,.05Z"/><path class="cls-1" d="M585.84,612.46a24,24,0,0,0,.33-4.29L586,535.46l11.58,0,30.83,48.2-.13-44.35c0-2.12-.2-3.43-.59-3.93l15.63-.05a40.09,40.09,0,0,0-.27,5.1l.2,71.9-12,0L600.82,566l.13,46.38Z"/><path class="cls-1" d="M691.79,612.5q-2.77-.35-14.3-.31h-1.85l-.19-64-11.46,0q-5.1,0-6,.54a12.45,12.45,0,0,0-1.45.93l-.17-.06,0-14.82.17-.18q1.9.64,10.31.61l36.3-.1q5.08,0,6-.54a12.2,12.2,0,0,0,1.44-.93l.18.06,0,14.82-.18.17c-1.27-.42-4.71-.62-10.3-.61l-8.69,0Z"/><path class="cls-1" d="M762.09,598.05a12.14,12.14,0,0,0,5-.71l.23.06-.54,14.54-43.36.12-.22-77.41c1,.08,2.19.13,3.47.17l4.05.1q4.06.11,8.8.09,13.26,0,26.23-.54a115.13,115.13,0,0,0-.6,13.61,6,6,0,0,0,.12,1.39l-.11.17a32.78,32.78,0,0,0-8.57-.84l-18.24.05,0,14.77,13.72,0a46.46,46.46,0,0,0,7.64-.37l.22,14.3a70.85,70.85,0,0,0-7.18-.27l-14.36,0,.06,20.84Zm-22.26-89.56q8.68,0,18.53-1l-.06.4-15.12,18.75-13.08,0Z"/><path class="cls-1" d="M846.12,565.27c-.73,1.32-1.09,4.46-1.07,9.44l.05,17.95q0,8.16-8.41,14.21-8.73,6.33-21.41,6.37-17.6.06-28.11-11Q777,591.76,777,575.43q0-17.37,10.22-29,11.49-13.05,31.69-13.11,13.5,0,21.38,5.14l-.88,17.09-.46.11q-2-3.52-8-5.76a33.41,33.41,0,0,0-11.9-2.11,27.72,27.72,0,0,0-10.88,2,21.61,21.61,0,0,0-7.89,5.64q-6.81,7.49-6.78,19.76,0,10.71,6.08,17.18a20.29,20.29,0,0,0,15.53,6.38q10.48,0,14.11-5.48a7,7,0,0,0,1.15-3.94l0-9.62-7.47,0q-6,0-6.54,1.06l-.17-.06-.57-15.11q1.62.47,13.14.42l6.84,0a51.77,51.77,0,0,0,10.42-.89Z"/><path class="cls-1" d="M886.58,581.65c-1.16.09-2.4.13-3.71.13s-3.26-.08-5.84-.27l.08,30.11-15.34,0-.22-77.41a159.54,159.54,0,0,1,19.91-1.09q16.1-.06,24,5.86t8,18.3a21.78,21.78,0,0,1-7.19,16.46,25.35,25.35,0,0,1-5.43,3.84l11.88,24.86q3.49,7.69,5.35,9.13l-.29.29q-5.61-.9-17.65.11Zm-4-34.83a51.64,51.64,0,0,0-5.67.3l.06,22.12a48.1,48.1,0,0,0,6.66.38,26.41,26.41,0,0,0,6.42-.68,13.09,13.09,0,0,0,4.51-2.07q4.11-3.09,4.09-9.22T894.36,549Q890.36,546.79,882.6,546.82Z"/><path class="cls-1" d="M936.46,611.91q-5-.45-11.64-.43h-4.57l25-70.65a31.88,31.88,0,0,0,1.66-5.53,4.14,4.14,0,0,0-.06-.95l.06-.12c2.5.11,5.17.16,8,.15,2.32,0,5.1,0,8.34-.14l.06.11a1.44,1.44,0,0,0-.11.64,26.08,26.08,0,0,0,1.75,5.84l25.91,70.62c-.77,0-1.68-.05-2.72-.05l-3-.11h-2.61l-9,0L968,594.68l-26.17.07Zm27-31.11-8.82-26.9-8.43,27Z"/><path class="cls-1" d="M1027.93,611.53q-2.78-.35-14.3-.31h-1.85l-.26-88.85-11.46,0c-3.4,0-13.68.21-14.29.56a12.45,12.45,0,0,0-1.45.93l-.17-.06,0-14.82.18-.17c1.27.42,13,.6,18.58.58l36.3-.1c3.4,0,956.94-2.55,957.56-2.9a12.2,12.2,0,0,0,1.44-.93l.17.06.05,14.82-.17.18c-1.28-.43-956.25,1.73-961.85,1.74l-8.68,0Z"/><path class="cls-1" d="M1061.11,533.85q5.79.21,7,.21h4.17a21.43,21.43,0,0,0,4.92-.48l.16,77.47-16,0Z"/><path class="cls-1" d="M1105.43,601.81a36.43,36.43,0,0,1-8.35-12.08,38.81,38.81,0,0,1-3.08-15.48,44.75,44.75,0,0,1,2.79-16,40.57,40.57,0,0,1,8.07-13.28,38.76,38.76,0,0,1,12.71-9.15,40,40,0,0,1,16.72-3.44q16,0,27,10,11.73,10.73,11.78,29,0,17.71-12,29.5a39.2,39.2,0,0,1-17.63,10,46.55,46.55,0,0,1-11.78,1.37,39.51,39.51,0,0,1-26.22-10.52Zm4.66-28.39a26.51,26.51,0,0,0,1.83,9.9,23,23,0,0,0,5,7.74q6.8,6.81,17.44,6.78,10.14,0,16.25-6.59,6.24-6.78,6.2-18.48,0-11-6-18.34-6.43-7.84-17.62-7.82-10.83,0-17.17,8Q1110.06,562.14,1110.09,573.42Z"/><path class="cls-1" d="M1188.54,610.71a25.92,25.92,0,0,0,.33-4.28l-.21-72.72,11.58,0,30.82,48.19-.12-44.34c0-2.13-.21-3.44-.6-3.94l15.64-.05a42.14,42.14,0,0,0-.28,5.1l.21,71.91-12,0-30.36-46.29.14,46.38Z"/></g></g></g></svg>