<svg xmlns="http://www.w3.org/2000/svg" viewBox="0 0 33.11 33.11"><g id="Layer_2" data-name="Layer 2"><g id="Maquette_Cellulaire" data-name="Maquette Cellulaire"><g id="Accueil"><g id="nouveaux_etudiants_active_copy_8" data-name="nouveaux_etudiants_active copy 8"><path d="M4.52,20.63c-1.85,0-3.36.09-4.52.22l0-9A27.62,27.62,0,0,0,4.85,12l7.36,0-.06-7A28.46,28.46,0,0,0,11.9.18l9-.18a41.47,41.47,0,0,0-.15,4.52l.05,7.39,7.33-.05a28.43,28.43,0,0,0,4.8-.26l.18,9c-1.17-.11-2.67-.16-4.52-.15l-7.72.06.06,8.09c0,1.84.09,3.35.22,4.51l-9,0a29.08,29.08,0,0,0,.18-4.81l-.06-7.69Z"/></g></g></g></g></svg>