<svg xmlns="http://www.w3.org/2000/svg" xmlns:xlink="http://www.w3.org/1999/xlink" viewBox="0 0 583.83 586.04"><defs><style>.cls-1{fill:none;}.cls-2{clip-path:url(#clip-path);}.cls-3{opacity:0.5;}.cls-4{fill:#f2f2f2;}</style><clipPath id="clip-path"><path class="cls-1" d="M43.51,260.58l55.21,13.09L64,420.08l60.7,14.39,34.71-146.41,55.46,13.15L180.18,447.62l57.62,13.66,29.92-126.22,4.77,134.44,45.19,10.71,64.79-118.49-30,126.73,57.43,13.62,46.7-197-86.13-20.42L314.64,393.91l-1.49-122.85L232,251.83a32.74,32.74,0,0,1-39.77,24.66c-18-4.26-29.31-20.5-24.7-39.94L55.5,210Z"/></clipPath></defs><g id="Layer_2" data-name="Layer 2"><g id="big-circle"><path d="M51.92,126.49A291.85,291.85,0,0,0,4.21,243.78C-23,403.28,84.28,554.63,243.78,581.83,387.22,606.29,524,522,569.93,388.78Z"/><path d="M583.83,257c-15.45-125-111-230.49-241.56-252.76A291.77,291.77,0,0,0,150,37.32Z"/><g id="Layer_137" data-name="Layer 137"><g class="cls-2"><g class="cls-3"><path class="cls-4" d="M51.92,126.49A291.85,291.85,0,0,0,4.21,243.78C-23,403.28,84.28,554.63,243.78,581.83,387.22,606.29,524,522,569.93,388.78Z"/><path class="cls-4" d="M583.83,257c-15.45-125-111-230.49-241.56-252.76A291.77,291.77,0,0,0,150,37.32Z"/></g></g></g></g></g></svg>