<svg xmlns="http://www.w3.org/2000/svg" viewBox="0 0 2030.57 1349.43"><defs><style>.cls-1{fill:#1a1a1a;}</style></defs><g id="Layer_2" data-name="Layer 2"><g id="Maquette_Design" data-name="Maquette Design"><g id="Accueil"><g id="svgTitre"><path class="cls-1" d="M420.35,774.52a132.64,132.64,0,0,0-13.44-.4l-5.82,0-.28-97q4.65.27,10.25.26a37.21,37.21,0,0,0,7.92-.6l24.55,41.44,23.36-41.58a43.64,43.64,0,0,0,8.88.55q6.54,0,11.19-.32l.28,97-5.81,0a132.34,132.34,0,0,0-13.45.47l-.19-65.14-23.65,42.6-24-39.05Z"/><path class="cls-1" d="M567.45,676.59c3,.24,5.5.35,7.49.35l6,0a38.24,38.24,0,0,0,6.4-.6l.18,60.13q0,17.88-10.76,28.75-10.21,10.27-25.71,10.32-16.94,0-27.43-8.72-11.73-9.84-11.79-28.46l-.18-61.59q6,.36,11.38.34a54.45,54.45,0,0,0,8.83-.61l.19,62.74q0,9.16,5.64,14.24a19,19,0,0,0,13.1,4.61q11.63,0,15.45-12a35.15,35.15,0,0,0,1.35-10.61Z"/><path class="cls-1" d="M626.26,773.49q-10.69,0-14.18.47l-.28-97.57a37,37,0,0,0,7.24.42c3.65,0,7.91-.12,12.75-.33L632,756l15.06,0a100.49,100.49,0,0,0,10.46-.47q-.45,17-.46,17.67v.73q-7.12-.49-23.92-.44Z"/><path class="cls-1" d="M709.14,773.68q-3.48-.42-17.95-.38h-2.33l-.23-80.42-14.4,0c-4.26,0-6.79.24-7.56.68a16.34,16.34,0,0,0-1.82,1.17l-.21-.07,0-18.62.21-.22q2.4.79,12.94.77l45.59-.13c4.27,0,6.79-.24,7.56-.68a15.2,15.2,0,0,0,1.81-1.17l.23.07.05,18.62-.22.21q-2.4-.78-12.94-.76l-10.91,0Z"/><path class="cls-1" d="M750.82,676.13q7.26.27,8.79.27l5.24,0a26.26,26.26,0,0,0,6.18-.59l.2,97.28-20.13,0Z"/><path class="cls-1" d="M818.2,773.37a129.86,129.86,0,0,0-13.45-.4l-5.81,0-.28-97c3.1.18,6.51.27,10.25.26a36.38,36.38,0,0,0,7.92-.61l24.55,41.45,23.36-41.59a43.36,43.36,0,0,0,8.87.56q6.55,0,11.2-.32l.28,97h-5.81a131.08,131.08,0,0,0-13.45.48l-.19-65.15L842,750.69l-24-39.05Z"/><path class="cls-1" d="M959.06,755.07c3,0,5.08-.3,6.25-.89l.29.07-.68,18.26-54.45.15-.28-97.21c1.31.1,2.76.17,4.36.21l5.09.13c3.39.09,7.08.13,11.05.11q16.65,0,32.93-.67a144.82,144.82,0,0,0-.74,17.09,7.52,7.52,0,0,0,.15,1.74l-.15.22a41,41,0,0,0-10.76-1.06l-22.91.07.06,18.54,17.23-.05c5.33,0,8.53-.17,9.6-.47l.26,18a88.92,88.92,0,0,0-9-.34l-18,.05.07,26.18Zm-28-112.47q10.9,0,23.26-1.3l-.06.51-19,23.54-16.43,0Z"/><path class="cls-1" d="M1008.63,774.2a124.36,124.36,0,0,1-22.19-1.83l-.28-97.28a189.54,189.54,0,0,1,22.28-1.23,72.15,72.15,0,0,1,23,3.39,46.83,46.83,0,0,1,17.23,9.8q14,12.76,14.06,35.8.08,25.81-15.45,39.24Q1033.35,774.12,1008.63,774.2Zm-3.33-17.73a52.15,52.15,0,0,0,9.46.84,31.9,31.9,0,0,0,10.17-1.88,24.65,24.65,0,0,0,9.43-5.81q8.57-8.31,8.51-24.16-.07-26-19.06-31.94a48.19,48.19,0,0,0-14.48-1.92h-2c-.73,0-1.48,0-2.26.08Z"/><path class="cls-1" d="M1086.21,675.16q7.27.27,8.8.27l5.23,0a25.61,25.61,0,0,0,6.18-.6l1.88,674.56-20.14.06Z"/><path class="cls-1" d="M1141,772.58q-6.26-.57-14.61-.54h-5.75L1152,683.33c1.4-4,2.09-6.29,2.09-6.94a6.38,6.38,0,0,0-.07-1.21l.07-.14q4.73.21,10,.19,4.36,0,10.47-.18l.07.15a1.91,1.91,0,0,0-.14.8c0,.92.74,3.37,2.2,7.33L1209.29,772c-1,0-2.11-.07-3.41-.07l-3.79-.13h-3.27l-11.27,0-6.89-20.92-32.87.1Zm33.92-39.07-11.08-33.78-10.59,33.84Z"/></g></g></g><g id="Logo"><path class="cls-1" d="M24.64,935.07q-2-.24-10-.24h-1.3V569.71h-8c-2.37,0-3.78.12-4.21.37a7.92,7.92,0,0,0-1,.64l-.12,0V560.33l.12-.13q1.34.45,7.2.45H32.69c2.37,0,3.77-.12,4.21-.37a8.71,8.71,0,0,0,1-.64l.12,0V570l-.12.13q-1.33-.45-7.2-.45H24.64Z"/><path class="cls-1" d="M73.79,604.75a8.68,8.68,0,0,0,3.48-.49l.16,0L77,614.46H46.73V560.37c.73,0,1.53.09,2.42.12l2.84.08q2.82.07,6.15.08,9.26,0,18.32-.32a81.78,81.78,0,0,0-.44,9.5,4,4,0,0,0,.08,1l-.08.12a23.06,23.06,0,0,0-6-.6H57.29v10.31h9.58a31.82,31.82,0,0,0,5.34-.24l.13,10c-1.3-.13-3-.2-5-.2h-10v14.57Z"/><path class="cls-1" d="M112.35,559.64a28.87,28.87,0,0,1,12.9,2.63v12.38l-.08.08q-2.27-3.48-9.55-4.61a32.38,32.38,0,0,0-5.42-.37,17.57,17.57,0,0,0-6.43,1.23,13.42,13.42,0,0,0-5.18,3.5q-3.91,4.41-3.92,12.59,0,9.49,5,14.16,4.13,3.88,10.93,3.88,7.68,0,12.46-3.28a11.18,11.18,0,0,0,3-2.91l.12.08v11.33q-6.18,5.13-16.67,5.14-12.33,0-19.33-7.85-6.72-7.49-6.72-19.83,0-13.06,7.36-20.59T112.35,559.64Z"/><path class="cls-1" d="M147.22,614.7q-3.89-.24-9.22-.24h-1.3v-54c1.67.13,2.86.2,3.56.2h1.66a36.72,36.72,0,0,0,5.3-.32v21.56h19V560.45q3.36.19,6.54.2a14.59,14.59,0,0,0,4-.32V614.7q-1.94-.24-7.68-.24h-2.84V591.6h-19Z"/><path class="cls-1" d="M191.84,614.46a16.55,16.55,0,0,0,.25-3V560.65h8.09l21.44,33.74V2.75a5.7,5.7,0,0,0-.4-2.75h10.92a27.94,27.94,0,0,0-.2,3.56v610.9h-8.42L202.4,582.05v32.41Z"/><path class="cls-1" d="M247.71,560.49c2.7.1,4.33.16,4.9.16h2.91a15,15,0,0,0,3.44-.32l0,54.13H247.71Z"/><path class="cls-1" d="M304.31,614.7a35.92,35.92,0,0,1-7.85.77,25.87,25.87,0,0,1-9.4-1.94,26.23,26.23,0,0,1-8.64-5.47q-7.94-7.56-7.93-19.38a28.82,28.82,0,0,1,7.69-20.3q8.08-8.75,20.63-8.74,11.42,0,18.93,7.2,8,7.68,8,20.15a28.11,28.11,0,0,1-5.66,17.47,26.88,26.88,0,0,1-4,4.21A25.31,25.31,0,0,1,319.6,610a20.77,20.77,0,0,0,8.34,2.14h.81a4.7,4.7,0,0,0,2.79-.57l.16.12-3.07,7.73a2.17,2.17,0,0,1-2.15,1.74,12.31,12.31,0,0,1-4.69-1c-1.59-.65-3-1.25-4.27-1.82s-2.45-1.07-3.58-1.5-2.21-.79-3.24-1.09A38.25,38.25,0,0,0,304.31,614.7Zm-23-26.46a18.22,18.22,0,0,0,1.32,7,16.69,16.69,0,0,0,16,10.54,15.15,15.15,0,0,0,11.61-4.82q4.65-4.94,4.65-13.06a19.09,19.09,0,0,0-4.37-12.83,15.7,15.7,0,0,0-12.54-5.5,15.3,15.3,0,0,0-12.3,5.58A19.86,19.86,0,0,0,281.33,588.24Z"/><path class="cls-1" d="M366.9,560.45c1.67.13,3.06.2,4.17.2h3.35a21.3,21.3,0,0,0,3.56-.32v33.45q0,10-6,16a19.42,19.42,0,0,1-14.33,5.71q-9.42,0-15.25-4.9-6.51-5.51-6.51-15.86V560.45q3.36.19,6.33.2a31.66,31.66,0,0,0,4.92-.32v34.91c0,3.4,1,6,3.11,7.93a10.58,10.58,0,0,0,7.28,2.59q6.48,0,8.62-6.64a19.55,19.55,0,0,0,.77-5.9Z"/><path class="cls-1" d="M418.64,604.75a8.68,8.68,0,0,0,3.48-.49l.16,0-.4,10.16h-30.3V560.37c.72,0,1.53.09,2.42.12l2.84.08q2.82.07,6.15.08,9.25,0,18.32-.32a81.78,81.78,0,0,0-.44,9.5,4,4,0,0,0,.08,1l-.08.12a23.06,23.06,0,0,0-6-.6H402.14v10.31h9.58a31.82,31.82,0,0,0,5.34-.24l.13,10c-1.3-.13-3-.2-5-.2h-10v14.57Z"/><path class="cls-1" d="M528.9,615.47a69.11,69.11,0,0,1-12.34-1.05V560.28a104.76,104.76,0,0,1,12.4-.64,40,40,0,0,1,12.78,1.92,26,26,0,0,1,9.57,5.48q7.77,7.13,7.77,20,0,14.35-8.66,21.8Q542.65,615.47,528.9,615.47Zm-1.82-9.87a29.16,29.16,0,0,0,5.26.48,17.57,17.57,0,0,0,5.66-1,13.68,13.68,0,0,0,5.26-3.22Q548,597.22,548,588.4q0-14.48-10.55-17.8a26.92,26.92,0,0,0-8.06-1.09h-1.09c-.4,0-.82,0-1.25,0Z"/><path class="cls-1" d="M583.27,556q.45,4.25.45,6.41c0,1.44-.05,2.84-.15,4.19s-.22,2.56-.38,3.64c-.4,2.32-.89,3.66-1.46,4q-2,1.31-9.5,2.83l-.25-.24q1.47-2.72,1.46-12.09c0-2.76-.08-5.14-.24-7.17Z"/><path class="cls-1" d="M603.46,537.1q5.79.23,7,.23h4.18a21.07,21.07,0,0,0,4.93-.46l-.06,77.59H603.46Z"/><path class="cls-1" d="M641.85,614.46a25.08,25.08,0,0,0,.34-4.3V537.33h11.6l30.74,48.36V541.28c0-2.13-.2-3.44-.59-3.95H699.6a42.09,42.09,0,0,0-.29,5.11v72H687.25L657,568v46.45Z"/><path class="cls-1" d="M748,614.8q-2.78-.34-14.32-.34h-1.86V550.32H720.3c-3.4,0-5.41.18-6,.52a12.45,12.45,0,0,0-1.45.93l-.17-.06V536.87l.17-.18q1.92.64,10.32.64H759.5c3.4,0,5.42-.17,6-.52a11.64,11.64,0,0,0,1.45-.93l.18.06v14.85L767,551q-1.9-.65-10.32-.64H748Z"/><path class="cls-1" d="M818.42,600.54a12.15,12.15,0,0,0,5-.7l.24.06-.58,14.56H779.63V536.93c1,.08,2.2.13,3.47.17l4.06.12q4.07.1,8.81.11,13.29,0,26.27-.46a116.41,116.41,0,0,0-.63,13.63,6.78,6.78,0,0,0,.11,1.39l-.11.17a32.6,32.6,0,0,0-8.58-.87H794.76V566H808.5a45.26,45.26,0,0,0,7.65-.35l.18,14.32c-1.86-.19-4.25-.29-7.19-.29H794.76v20.88Zm-22-89.77q8.7,0,18.56-1l-.06.4-15.19,18.74H786.58Z"/><path class="cls-1" d="M902.67,568q-1.09,2-1.1,9.45v18q0,8.18-8.47,14.2-8.75,6.33-21.45,6.33-17.62,0-28.13-11.08-10.14-10.56-10.14-26.91,0-17.38,10.32-29,11.53-13,31.77-13,13.51,0,21.4,5.22L896,558.21l-.47.11c-1.35-2.35-4-4.29-8-5.79a33.46,33.46,0,0,0-11.91-2.15,28,28,0,0,0-10.91,2,21.74,21.74,0,0,0-7.91,5.63q-6.84,7.47-6.84,19.77,0,10.72,6,17.22a20.33,20.33,0,0,0,15.54,6.44q10.49,0,14.15-5.45a7,7,0,0,0,1.16-3.94v-9.63H879.3c-4,0-6.2.35-6.55,1l-.17-.06-.53-15.13c1.09.31,5.47.46,13.17.46h6.84a51.37,51.37,0,0,0,10.44-.87Z"/><path class="cls-1" d="M943.15,584.47c-1.16.09-2.4.12-3.71.12s-3.27-.09-5.86-.29v30.16H918.21V536.93a159.33,159.33,0,0,1,19.95-1q16.13,0,24,6t7.91,18.35a21.81,21.81,0,0,1-7.25,16.47,25.55,25.55,0,0,1-5.45,3.83l11.83,24.93q3.48,7.71,5.34,9.16l-.3.29q-5.61-.92-17.68.06Zm-3.89-34.9a54.64,54.64,0,0,0-5.68.29V572a48,48,0,0,0,6.67.4,26.59,26.59,0,0,0,6.43-.66,13.17,13.17,0,0,0,4.53-2.06q4.11-3.08,4.11-9.22T951,551.83Q947,549.57,939.26,549.57Z"/><path class="cls-1" d="M993,614.92q-5-.46-11.66-.46h-4.58L1002,543.77a31.9,31.9,0,0,0,1.68-5.54,4.14,4.14,0,0,0-.06-1l.06-.12c2.51.12,5.18.17,8,.17q3.48,0,8.35-.11l.06.11a1.43,1.43,0,0,0-.12.64,26.58,26.58,0,0,0,1.74,5.86l25.75,70.8q-1.17-.06-2.73-.06l-3-.11h-11.6l-5.45-16.7H998.47Zm27.14-31.08-8.76-27-8.53,27Z"/><path class="cls-1" d="M1084.64,614.8q-2.79-.34-14.32-.34h-1.86v-89H1057c-3.4,0-13.7.17-14.32.52a12.59,12.59,0,0,0-1.45.92l-.17,0V512l.17-.17c1.28.42,13,.64,18.61.64h36.36c3.4,0,932.15-.18,932.76-.52a12.93,12.93,0,0,0,1.45-.93l.18.05v14.85l-.18.17c-1.27-.42-931.45-.63-937.05-.63h-8.7Z"/><path class="cls-1" d="M1118.09,537.1q5.81.23,7,.23h4.18a21.07,21.07,0,0,0,4.93-.46l-.06,77.59h-16.07Z"/><path class="cls-1" d="M1162.28,605.29a36.48,36.48,0,0,1-8.32-12.11,38.86,38.86,0,0,1-3-15.52,44.75,44.75,0,0,1,2.84-16,40.32,40.32,0,0,1,8.12-13.28,39,39,0,0,1,12.75-9.14,40.15,40.15,0,0,1,16.76-3.39q16,0,27,10.09,11.72,10.78,11.72,29.11,0,17.74-12.06,29.52a39.29,39.29,0,0,1-17.69,10,46.41,46.41,0,0,1-11.8,1.34,37.81,37.81,0,0,1-13.86-2.79A37.39,37.39,0,0,1,1162.28,605.29Zm4.75-28.41a26.72,26.72,0,0,0,1.8,9.91,23.31,23.31,0,0,0,5,7.78q6.78,6.84,17.46,6.84,10.14,0,16.29-6.55,6.26-6.79,6.26-18.5,0-11-6-18.38-6.43-7.89-17.63-7.89-10.85,0-17.22,8Q1167,565.58,1167,576.88Z"/><path class="cls-1" d="M1245.5,614.46a25.08,25.08,0,0,0,.34-4.3V537.33h11.6l30.73,48.36V541.28c0-2.13-.19-3.44-.58-3.95h15.66a42.09,42.09,0,0,0-.29,5.11v72H1290.9L1260.63,568v46.45Z"/><path class="cls-1" d="M465.76,563.57l-.78,12-.29.08q-3-4.53-10.29-5.88a22.8,22.8,0,0,0-4.39-.45,15,15,0,0,0-3.6.37,8.22,8.22,0,0,0-2.55,1.06,4.43,4.43,0,0,0-2.25,3.84,5.61,5.61,0,0,0,2,4.66q2.46,1.88,8.13,2.63a42,42,0,0,1,9.11,2.07,17.48,17.48,0,0,1,5.64,3.31q4.17,3.75,4.17,10.62,0,9-6.78,13.85-5.8,4.17-14.63,4.17a38.48,38.48,0,0,1-14-2.7,19.83,19.83,0,0,1-4-2.08l.45-13.65.17-.12q5.06,8.75,16.62,8.74,8.22,0,10.87-4a5.29,5.29,0,0,0,.9-3,6.25,6.25,0,0,0-.53-2.74,4.71,4.71,0,0,0-1.76-1.86q-2.37-1.56-8-2.08a32.47,32.47,0,0,1-9.16-2,16.8,16.8,0,0,1-5.67-3.63q-3.84-3.93-3.84-11a14.94,14.94,0,0,1,5.1-11.77q5.19-4.58,14-4.57A29,29,0,0,1,465.76,563.57Z"/></g></g></svg>