<svg xmlns="http://www.w3.org/2000/svg" viewBox="0 0 79.04 79.37"><defs><style>.cls-1{fill:#e56565;}</style></defs><g id="Layer_2" data-name="Layer 2"><g id="Maquette_Design" data-name="Maquette Design"><g id="Tableau_Prof" data-name="Tableau Prof"><path class="cls-1" d="M56,12.38q5.4-4.47,8.51-7.65L79,22.59q-1.92.87-9.73,7.33L55,41.8,66.39,55.54q6.56,7.88,8.28,9.1L57.31,79.37c-1.66-2.48-4-5.54-7-9.17L38.2,55.67,23.93,67.49q-7.74,6.41-9,8.19L0,58.18q3.71-2.48,9.1-6.94L24.16,38.78,10.94,22.89a114.26,114.26,0,0,0-7.73-8.58L20.92,0q.95,2,7.43,9.8L40.91,24.9Z"/></g></g></g></svg>