<svg xmlns="http://www.w3.org/2000/svg" viewBox="0 0 47.06 47.06"><defs><style>.cls-1{fill:#fff;}</style></defs><g id="Layer_2" data-name="Layer 2"><g id="maquette"><g id="decor"><path class="cls-1" d="M6.42,29.33A62.82,62.82,0,0,0,0,29.64L.06,16.85a41.45,41.45,0,0,0,6.83.26L17.35,17l-.07-9.94A39.43,39.43,0,0,0,16.91.25L29.7,0q-.24,2.49-.21,6.42l.08,10.51L40,16.85a41.6,41.6,0,0,0,6.83-.36l.25,12.79q-2.49-.24-6.42-.21l-11,.08.09,11.49c0,2.63.13,4.77.31,6.42L17.27,47a40.94,40.94,0,0,0,.26-6.84l-.08-10.93Z"/></g></g></g></svg>